<svg xmlns="http://www.w3.org/2000/svg" viewBox="0 0 120 120"><g fill="none" fill-rule="evenodd"><rect width="120" height="120" fill="#1B2127" rx="40"/><path fill="#FFF" fill-rule="nonzero" d="M91 54.4a6 6 0 0 0-3.5 0 17 17 0 0 0-1-3.2 27.7 27.7 0 0 0-19.6-15.6c.5.8 1 1.5 1.3 2.4A8.7 8.7 0 0 1 64 49.4a6.4 6.4 0 0 1-8.3-3 4.6 4.6 0 0 1 0-3.6 4.5 4.5 0 0 1 2.5-2.7c.8-.4 1.8 0 2.1.9.4.8 0 1.8-.8 2.2a1.3 1.3 0 0 0-.7 1.7 3 3 0 0 0 3.9 1.5 5.3 5.3 0 0 0 2.7-7A9 9 0 0 0 61 35h-1c-12 0-22.5 6.8-26.5 16.3-.4 1-.8 2-1 3.1a5.3 5.3 0 0 0-3.6 0 5.8 5.8 0 0 0 2 11.4c.5 0 1 0 1.6-.2.2 1 .6 2.1 1 3.1C37.5 78.2 48 85 60 85s22.5-6.8 26.5-16.3c.5-1 .8-2 1-3.1l1.6.2a5.8 5.8 0 0 0 2-11.4ZM65.9 57a2.5 2.5 0 0 1 2.5 2.5 2.5 2.5 0 0 1-2.5 2.5 2.5 2.5 0 0 1-2.5-2.5 2.5 2.5 0 0 1 2.5-2.5Zm-11.6 0a2.5 2.5 0 0 1 2.5 2.5 2.5 2.5 0 0 1-2.5 2.5 2.5 2.5 0 0 1-2.5-2.5 2.5 2.5 0 0 1 2.5-2.5ZM60 78.1a11.1 11.1 0 0 1-11.6-10.6c0-.6.2-1 .7-1.4.4-.3 1-.4 1.4-.2 6.2 2 12.8 2 19 0 .5-.2 1 0 1.4.2.5.3.7.8.7 1.4A11.2 11.2 0 0 1 60 78Z"/></g></svg>
