<?xml version="1.0" encoding="UTF-8"?>
<svg width="120px" height="120px" viewBox="0 0 120 120" version="1.1" xmlns="http://www.w3.org/2000/svg" xmlns:xlink="http://www.w3.org/1999/xlink">
    <title>Artboard</title>
    <g id="Artboard" stroke="none" stroke-width="1" fill="none" fill-rule="evenodd">
        <rect id="Rectangle" fill="#1B2127" x="0" y="0" width="120" height="120" rx="40"></rect>
        <g id="noun-baby-3214276" transform="translate(25.000000, 35.000000)" fill="#FFFFFF" fill-rule="nonzero">
            <path d="M66.0540006,19.4430737 C65.4286957,19.2324246 64.7726227,19.1273503 64.1127194,19.131742 C63.5809913,19.1239221 63.0512095,19.1957675 62.5408793,19.3458068 C62.2698934,18.2681259 61.9131414,17.2134167 61.4735177,16.1929523 C59.6609982,12.2355876 56.9429051,8.76305609 53.5399548,6.05787469 C50.1371294,3.35219282 46.1453941,1.4900581 41.8901467,0.62261337 C42.4155365,1.35279089 42.864418,2.13579332 43.2294173,2.95832061 C44.1832141,5.05742927 44.2607081,7.45231744 43.4443569,9.6091056 C42.6275066,11.7658938 40.9845357,13.5059131 38.8815539,14.441297 C38.0851782,14.7868361 37.226368,14.9657176 36.358849,14.9666935 C35.5951254,14.9789121 34.8367918,14.8396234 34.1266065,14.5581074 C32.5845862,13.9926355 31.3285365,12.8382321 30.6330739,11.3465725 C30.1573921,10.2073084 30.1573921,8.92440857 30.6330739,7.7850819 C31.0371135,6.59645865 31.9158242,5.63067098 33.0592075,5.11856204 C33.8950602,4.74809945 34.8727252,5.12687077 35.2426654,5.96554994 C35.6125806,6.80374204 35.23438,7.78414352 34.3985281,8.15511909 C34.0802673,8.29538914 33.8317024,8.55734919 33.7079066,8.8828568 C33.5836255,9.2083644 33.5948347,9.57003118 33.738611,9.88721842 C34.0441953,10.5983404 34.6256439,11.1535401 35.3493791,11.4247964 C36.0516914,11.7468758 36.8593338,11.7468758 37.5620329,11.4247964 C38.8506473,10.8539445 39.8595296,9.79187833 40.3659671,8.47325723 C40.871868,7.1551366 40.8338509,5.68887599 40.2597188,4.39865673 C39.4243527,2.49498276 37.9563579,0.940263549 36.1062829,0 L34.999931,0 C22.9085653,0 12.5440028,6.75350706 8.50772498,16.2516078 C8.06811382,17.2720971 7.71086268,18.3263184 7.43987685,19.4044622 C6.93885437,19.2363283 6.4154109,19.144454 5.88762547,19.131742 C5.22770965,19.1273433 4.57168662,19.2324234 3.94634429,19.4430737 C2.40232767,19.970422 1.1492724,21.1229112 0.492737814,22.6208267 C-0.164245938,24.1183669 -0.164245938,25.8231028 0.492737814,27.3205179 C1.14923497,28.8185585 2.40232767,29.9710226 3.94634429,30.4982709 C4.57164919,30.7089199 5.22772212,30.8139942 5.88762547,30.8096026 C6.4193536,30.8174225 6.94913534,30.7455771 7.45946558,30.5955378 C7.73045142,31.6732187 8.08720348,32.7279279 8.52682712,33.7483922 C12.5637288,43.2461176 22.9276674,50 35.0190331,50 C47.1103989,50 57.4749614,43.2464929 61.5112392,33.7483922 L61.5117265,33.7483922 C61.9513377,32.7279029 62.3085888,31.6731812 62.579088,30.5955378 C63.0771909,30.7416759 63.5938095,30.8135188 64.1123745,30.8096026 C64.7722904,30.8140012 65.4283134,30.7089212 66.0536557,30.4982709 C67.5976723,29.9709225 68.8507276,28.8184334 69.5072622,27.3205179 C70.1642459,25.8229777 70.1642459,24.1182417 69.5072622,22.6208267 C68.850765,21.122786 67.5976723,19.970322 66.0536557,19.4430737 L66.0540006,19.4430737 Z M40.8232093,21.9151598 C41.4879912,21.9097836 42.127919,22.1702884 42.6011679,22.6389938 C43.0749034,23.1076993 43.3424705,23.7460025 43.3459322,24.41267 C43.3497882,25.0798004 43.0880665,25.7205309 42.6196961,26.1941034 C42.1513257,26.667676 41.5143174,26.9345532 40.8490989,26.9365111 C40.1838305,26.9379711 39.5453874,26.6745324 39.0745091,26.2033872 C38.6037057,25.732242 38.3385716,25.0929628 38.3385716,24.4258324 C38.3336978,23.7616297 38.5929881,23.1228511 39.0593996,22.6516558 C39.5258236,22.1800226 40.160873,21.9150782 40.8232593,21.9150782 L40.8232093,21.9151598 Z M29.1782672,21.9151598 L29.1777797,21.9151598 C29.8430481,21.9097836 30.4829884,22.1702884 30.9562373,22.6389938 C31.4294862,23.1076993 31.69754,23.7460025 31.7009916,24.41267 C31.7043702,25.0798004 31.4431359,25.7205309 30.9747655,26.1941034 C30.5059085,26.667701 29.8689003,26.9345532 29.2041683,26.9365111 C28.5388999,26.9379711 27.9004569,26.6745324 27.4290795,26.2033872 C26.9582761,25.732242 26.6936285,25.0929628 26.6936285,24.4258324 C26.6882673,23.7616297 26.948045,23.1228511 27.4144566,22.6516558 C27.8808806,22.1800226 28.51593,21.9150782 29.1778171,21.9150782 L29.1782672,21.9151598 Z M35.0009878,43.0513836 L35.0005004,43.0513836 C32.0610671,43.1892138 29.1865137,42.155024 27.0050521,40.1751655 C24.8230915,38.1947941 23.5110205,35.4299313 23.3555153,32.4828963 C23.3516592,31.9467397 23.613381,31.4438269 24.0539778,31.1403777 C24.4736135,30.81499 25.0301956,30.7268994 25.5292467,30.9067569 C31.6818566,32.930169 38.319319,32.930169 44.4716793,30.9067569 C44.9707554,30.7268994 45.5273375,30.81499 45.9469482,31.1403777 C46.3875326,31.4438895 46.6492606,31.9468022 46.6454106,32.4828963 C46.4898931,35.4300564 45.1778345,38.1947941 42.9958739,40.1751655 C40.8144124,42.1550365 37.9398589,43.1892639 35.0004256,43.0513836 L35.0009878,43.0513836 Z" id="Shape"></path>
        </g>
    </g>
</svg>