<?xml version="1.0" encoding="UTF-8"?>
<svg width="72px" height="68px" viewBox="0 0 72 68" version="1.1" xmlns="http://www.w3.org/2000/svg" xmlns:xlink="http://www.w3.org/1999/xlink">
    <!-- Generator: Sketch 48.1 (47250) - http://www.bohemiancoding.com/sketch -->
    <title>Group</title>
    <desc>Created with Sketch.</desc>
    <defs></defs>
    <g id="Page-1" stroke="none" stroke-width="1" fill="none" fill-rule="evenodd">
        <g id="Group" fill="#000000" fill-rule="nonzero">
            <g id="icon">
                <path d="M58.31,27.49 L58.31,21.12 C58.3155105,16.4002498 62.1402498,12.5755105 66.86,12.57 L70.56,12.57 C71.1122847,12.57 71.56,12.1222847 71.56,11.57 C71.56,11.0177153 71.1122847,10.57 70.56,10.57 L66.86,10.57 C61.0379607,10.5810058 56.3210058,15.2979607 56.31,21.12 L56.31,27.49 C56.31,27.58 56.31,27.68 56.31,27.77 L28.41,27.77 L28.41,1.52 C28.41,0.96771525 27.9622847,0.52 27.41,0.52 C12.4983118,0.52 0.41,12.6083118 0.41,27.52 C0.41,27.9 0.41,28.28 0.41,28.66 C0.406729322,28.7066094 0.406729322,28.7533906 0.41,28.8 C0.401908783,28.8731101 0.401908783,28.9468899 0.41,29.02 C1.23244418,43.3231602 13.0832332,54.4936261 27.41,54.47 L31.33,54.47 C32.4130262,54.4681351 33.4949667,54.4013487 34.57,54.27 C31.5766166,56.0312632 30.2997471,59.7016388 31.5536689,62.9404769 C32.8075907,66.179315 36.2231182,68.0330209 39.6221215,67.3194604 C43.0211248,66.6058998 45.4028527,63.5351629 45.248444,60.0655016 C45.0940352,56.5958402 42.4489516,53.7488091 39,53.34 C50.4436514,49.9398621 58.2959685,39.428086 58.31,27.49 Z M43.26,60.38 C43.26,63.1966522 40.9766522,65.48 38.16,65.48 C35.3433478,65.48 33.06,63.1966522 33.06,60.38 C33.06,57.5633478 35.3433478,55.28 38.16,55.28 C40.9766522,55.28 43.26,57.5633478 43.26,60.38 Z M26.41,2.54 L26.41,27.78 L2.41,27.78 C2.41,27.69 2.41,27.59 2.41,27.5 C2.42072416,14.0896554 13.0103835,3.07640967 26.41,2.54 Z M31.34,52.47 L27.41,52.47 C14.5032075,52.4576217 3.72741952,42.6220613 2.54,29.77 L56.21,29.77 C55.0222242,42.6258753 44.240627,52.4627827 31.33,52.47 L31.34,52.47 Z" id="Shape"></path>
                <path d="M8.25,60.38 C8.25,63.2516819 9.97985946,65.8405996 12.6329476,66.9395447 C15.2860358,68.0384898 18.3398724,67.4310439 20.3704581,65.4004581 C22.4010439,63.3698724 23.0084898,60.3160358 21.9095447,57.6629476 C20.8105996,55.0098595 18.2216819,53.28 15.35,53.28 C11.431062,53.285508 8.255508,56.461062 8.25,60.38 Z M20.44,60.38 C20.44,63.1966522 18.1566522,65.48 15.34,65.48 C12.5233478,65.48 10.24,63.1966522 10.24,60.38 C10.24,57.5633478 12.5233478,55.28 15.34,55.28 C18.1566522,55.28 20.44,57.5633478 20.44,60.38 Z" id="Shape"></path>
            </g>
        </g>
    </g>
</svg>